<svg width="28" height="33" viewBox="0 0 28 33" fill="none" xmlns="http://www.w3.org/2000/svg">
<path d="M22.8165 17.3597C22.8324 16.1205 23.1616 14.9055 23.7733 13.8277C24.385 12.7499 25.2594 11.8444 26.3151 11.1954C25.6444 10.2375 24.7597 9.44925 23.7311 8.89318C22.7025 8.3371 21.5584 8.02852 20.3897 7.99196C17.8966 7.73027 15.4796 9.48378 14.2092 9.48378C12.9142 9.48378 10.9582 8.01794 8.85186 8.06127C7.48943 8.10529 6.16165 8.50148 4.99786 9.21122C3.83408 9.92097 2.87399 10.9201 2.21115 12.1112C-0.660163 17.0824 1.48157 24.3885 4.23205 28.4068C5.60817 30.3745 7.21646 32.5724 9.32087 32.4945C11.3802 32.4091 12.1493 31.1814 14.635 31.1814C17.0977 31.1814 17.8193 32.4945 19.9664 32.4449C22.1761 32.4091 23.5683 30.4685 24.8962 28.4822C25.8849 27.0802 26.6458 25.5306 27.1505 23.8909C25.8667 23.3479 24.7712 22.4391 24.0004 21.2776C23.2297 20.1162 22.818 18.7536 22.8165 17.3597Z" fill="#3C50B5"/>
<path d="M18.7614 5.34885C19.9662 3.90249 20.5598 2.04344 20.4161 0.166504C18.5754 0.359835 16.8751 1.23958 15.6539 2.63044C15.0569 3.30991 14.5996 4.10039 14.3083 4.95669C14.0169 5.81299 13.8972 6.71832 13.9559 7.62092C14.8766 7.6304 15.7875 7.43085 16.6198 7.03728C17.4522 6.64372 18.1845 6.06642 18.7614 5.34885Z" fill="#3C50B5"/>
</svg>
