<svg width="58" height="33" viewBox="0 0 58 33" fill="none" xmlns="http://www.w3.org/2000/svg">
<path d="M42.1335 24.0818C41.6634 24.0818 41.2039 23.9426 40.813 23.6818C40.4221 23.421 40.1175 23.0503 39.9376 22.6166C39.7577 22.1829 39.7106 21.7057 39.8023 21.2453C39.8941 20.7849 40.1204 20.3619 40.4528 20.03C40.7852 19.6981 41.2087 19.472 41.6698 19.3804C42.1308 19.2889 42.6087 19.3359 43.043 19.5155C43.4773 19.6951 43.8485 19.9994 44.1097 20.3897C44.3708 20.78 44.5103 21.2389 44.5103 21.7083C44.5101 22.3378 44.2597 22.9414 43.814 23.3865C43.3683 23.8316 42.7638 24.0817 42.1335 24.0818ZM15.964 24.0818C15.494 24.0818 15.0344 23.9426 14.6436 23.6818C14.2527 23.421 13.9481 23.0503 13.7682 22.6166C13.5883 22.1829 13.5412 21.7057 13.6329 21.2453C13.7246 20.7849 13.951 20.3619 14.2834 20.03C14.6158 19.6981 15.0393 19.472 15.5004 19.3804C15.9614 19.2889 16.4393 19.3359 16.8736 19.5155C17.3079 19.6951 17.6791 19.9994 17.9403 20.3897C18.2014 20.78 18.3408 21.2389 18.3408 21.7083C18.3407 22.3378 18.0902 22.9414 17.6445 23.3865C17.1988 23.8316 16.5944 24.0817 15.964 24.0818ZM42.9752 9.84088L47.7288 1.65728C47.793 1.54523 47.8343 1.42162 47.8505 1.29357C47.8666 1.16551 47.8573 1.03553 47.823 0.911083C47.7887 0.786639 47.7301 0.670187 47.6506 0.568416C47.5712 0.466645 47.4723 0.38156 47.3598 0.318051C47.2473 0.254541 47.1233 0.213858 46.995 0.198338C46.8667 0.182817 46.7365 0.192765 46.6121 0.227611C46.4876 0.262457 46.3713 0.321514 46.2698 0.401389C46.1683 0.481264 46.0835 0.580383 46.0205 0.693053L41.2174 8.97554C37.4027 7.23473 33.2553 6.34061 29.0611 6.35481C24.862 6.34455 20.7091 7.22961 16.8801 8.95082L12.0522 0.66833C11.9892 0.55566 11.9045 0.456541 11.803 0.376665C11.7014 0.29679 11.5851 0.237734 11.4606 0.202888C11.3362 0.168042 11.2061 0.158093 11.0778 0.173614C10.9495 0.189134 10.8255 0.229818 10.713 0.293327C10.6004 0.356837 10.5016 0.441921 10.4221 0.543692C10.3426 0.645463 10.284 0.761915 10.2498 0.886359C10.2155 1.0108 10.2061 1.14079 10.2223 1.26884C10.2384 1.3969 10.2798 1.52051 10.3439 1.63256L15.0728 9.81615C10.984 12.043 7.51605 15.253 4.98276 19.1556C2.44946 23.0582 0.930874 27.5301 0.564453 32.1665H57.434C57.0786 27.5365 55.5697 23.0688 53.0445 19.1696C50.5193 15.2704 47.0579 12.0636 42.9752 9.84088Z" fill="#3C50B5"/>
</svg>
