<svg width="195" height="46" viewBox="0 0 195 46" fill="none" xmlns="http://www.w3.org/2000/svg">
<path d="M22.7462 0.21582C27.245 0.21582 31.6427 1.55209 35.3833 4.05563C39.1239 6.55918 42.0394 10.1176 43.761 14.2808C45.4826 18.4441 45.933 23.0252 45.0554 27.4449C44.1777 31.8645 42.0113 35.9243 38.8302 39.1107C35.6491 42.2971 31.5961 44.4671 27.1838 45.3462C22.7714 46.2253 18.1979 45.7741 14.0416 44.0496C9.88529 42.3252 6.33281 39.4049 3.83343 35.6581C1.33404 31.9112 0 27.5062 0 22.9999C0 16.9572 2.39647 11.162 6.66221 6.88913C10.928 2.61628 16.7135 0.21582 22.7462 0.21582Z" fill="#8BBE23"/>
<path d="M72.5939 0.21582C77.0927 0.21582 81.4904 1.55209 85.231 4.05563C88.9716 6.55918 91.887 10.1176 93.6086 14.2808C95.3302 18.4441 95.7807 23.0252 94.903 27.4449C94.0254 31.8645 91.859 35.9243 88.6779 39.1107C85.4968 42.2971 81.4438 44.4671 77.0314 45.3462C72.6191 46.2253 68.0456 45.7741 63.8893 44.0496C59.7329 42.3252 56.1805 39.4049 53.6811 35.6581C51.1817 31.9112 49.8477 27.5062 49.8477 22.9999C49.8477 16.9572 52.2441 11.162 56.5099 6.88913C60.7756 2.61628 66.5612 0.21582 72.5939 0.21582Z" fill="#5B8FCB"/>
<path d="M122.475 0.215823C126.974 0.213582 131.373 1.54794 135.115 4.05012C138.857 6.5523 141.775 10.1099 143.498 14.273C145.221 18.436 145.673 23.0175 144.797 27.4379C143.921 31.8583 141.755 35.9191 138.574 39.1067C135.394 42.2942 131.341 44.4653 126.928 45.3454C122.516 46.2254 117.941 45.7749 113.784 44.0507C109.627 42.3266 106.074 39.4063 103.574 35.6592C101.075 31.9122 99.7402 27.5067 99.7402 22.9999C99.7402 16.9592 102.135 11.1656 106.398 6.89313C110.662 2.62061 116.444 0.218827 122.475 0.215823Z" fill="#841F82"/>
<path d="M172.243 0.215823C176.742 0.213582 181.141 1.54794 184.883 4.05012C188.625 6.5523 191.542 10.1099 193.266 14.273C194.989 18.436 195.441 23.0175 194.565 27.4379C193.688 31.8583 191.523 35.9191 188.342 39.1067C185.161 42.2942 181.108 44.4653 176.696 45.3454C172.283 46.2254 167.709 45.7749 163.552 44.0507C159.395 42.3266 155.842 39.4063 153.342 35.6592C150.842 31.9122 149.508 27.5067 149.508 22.9999C149.508 16.9592 151.903 11.1656 156.166 6.89313C160.429 2.62061 166.212 0.218827 172.243 0.215823Z" fill="#FBE600"/>
<path d="M29.476 28.4954C29.5216 29.389 29.3523 30.2804 28.9822 31.0947C28.6121 31.9089 28.0522 32.6223 27.3496 33.1746C25.6293 34.4052 23.5455 35.0198 21.434 34.9194C19.3194 35.0236 17.2094 34.6358 15.2695 33.7864V30.3875C16.2982 30.8945 17.3845 31.2749 18.5044 31.5205C19.5451 31.7813 20.6106 31.9294 21.6828 31.9623C22.804 32.0599 23.925 31.7722 24.8612 31.1466C25.1839 30.8834 25.4416 30.5492 25.6143 30.1699C25.7869 29.7907 25.8698 29.3766 25.8565 28.96C25.8595 28.5602 25.7773 28.1645 25.6154 27.7991C25.4535 27.4338 25.2157 27.1072 24.9177 26.8413C23.7371 25.9727 22.4382 25.2783 21.0607 24.7793C19.4025 24.2455 17.918 23.2751 16.7626 21.9695C15.9267 20.8798 15.4877 19.5366 15.5184 18.1627C15.4828 17.3299 15.6447 16.5004 15.9907 15.7423C16.3367 14.9841 16.857 14.3188 17.5091 13.8008C19.0326 12.661 20.903 12.0846 22.8026 12.1693C24.9838 12.1257 27.1496 12.5427 29.1593 13.3929L28.0282 16.384C26.3601 15.6315 24.5628 15.2084 22.7347 15.1377C21.782 15.0715 20.8355 15.3355 20.054 15.8854C19.7409 16.1234 19.4884 16.4322 19.3174 16.7867C19.1463 17.1412 19.0616 17.5312 19.07 17.9248C19.0618 18.4474 19.1905 18.963 19.4433 19.4203C19.7294 19.8792 20.1162 20.2667 20.5743 20.5533C21.524 21.127 22.5281 21.6051 23.5717 21.9808C24.8481 22.4784 26.0597 23.1289 27.1799 23.9182C27.8877 24.4438 28.4645 25.1263 28.8652 25.9123C29.2996 26.6714 29.4966 27.5436 29.4308 28.4161" fill="white"/>
<path d="M74.2099 35.1791H70.6017V16.0092H64.0527V12.8936H80.7589V16.0092H74.2099V35.1791Z" fill="white"/>
<path d="M128.978 35.1791H116.4V12.8936H128.978V15.9526H120.009V22.0026H128.424V25.0617H120.009V32.0521H128.978V35.1791Z" fill="white"/>
<path d="M169.607 35.1678L163.126 16.5757H163.001C163.182 19.3175 163.25 21.9347 163.25 24.3706V35.2358H160.004V12.9502H165.116L171.281 30.6812H171.349L177.705 12.9502H182.875V35.2358H179.391V24.1893C179.391 23.0563 179.391 21.6288 179.447 19.884C179.504 18.1392 179.572 17.0062 179.572 16.6324H179.447L172.785 35.2358H169.607V35.1678Z" fill="white"/>
</svg>
